<?xml version="1.0" standalone="no"?>
<!DOCTYPE svg PUBLIC "-//W3C//DTD SVG 20010904//EN"
 "http://www.w3.org/TR/2001/REC-SVG-20010904/DTD/svg10.dtd">
<svg version="1.0" xmlns="http://www.w3.org/2000/svg"
 width="840.000000pt" height="906.000000pt" viewBox="0 0 840.000000 906.000000"
 preserveAspectRatio="xMidYMid meet">
<metadata>
Created by potrace 1.16, written by Peter Selinger 2001-2019
</metadata>
<g transform="translate(0.000000,906.000000) scale(0.100000,-0.100000)"
fill="#000000" stroke="none">
<path d="M3325 8654 c-22 -2 -92 -9 -155 -14 -63 -6 -182 -22 -265 -36 -1330
-228 -2376 -1144 -2640 -2310 -81 -360 -81 -813 1 -1223 122 -618 431 -1165
896 -1589 l68 -61 0 -725 c0 -399 3 -727 7 -729 5 -3 64 28 133 68 69 39 393
227 721 417 l596 346 104 -13 c196 -26 474 -46 689 -52 898 -23 1713 288 2306
881 422 422 692 935 808 1535 136 701 15 1379 -350 1972 -498 809 -1378 1384
-2317 1514 -106 15 -514 28 -602 19z m-1285 -2610 c80 -37 149 -105 187 -182
26 -52 28 -67 28 -167 0 -102 -2 -114 -29 -168 -37 -72 -118 -150 -193 -185
-50 -23 -71 -27 -153 -27 -85 0 -102 3 -160 31 -315 149 -295 593 33 715 80
30 202 22 287 -17z m1552 -2 c79 -38 149 -110 186 -190 24 -50 27 -69 27 -157
0 -93 -2 -105 -33 -167 -131 -266 -497 -292 -664 -48 -119 174 -74 410 102
533 76 53 128 67 231 64 74 -3 96 -8 151 -35z m1539 6 c276 -127 305 -513 51
-677 -54 -35 -146 -61 -212 -61 -142 0 -285 94 -349 229 -23 49 -26 69 -26
156 0 87 3 107 27 157 47 100 137 180 241 214 68 22 200 13 268 -18z"/>
<path d="M7157 6263 c12 -44 7 -775 -6 -908 -38 -383 -128 -736 -271 -1062
-423 -964 -1303 -1667 -2430 -1942 -444 -108 -809 -140 -1525 -136 -170 1
-329 0 -352 -4 l-43 -6 108 -97 c539 -486 1094 -749 1767 -835 211 -27 692
-24 905 5 l155 21 709 -437 c390 -240 715 -438 723 -440 11 -3 13 125 13 725
l0 728 58 40 c189 131 466 390 614 575 327 408 526 864 594 1360 23 169 23
491 0 660 -68 495 -259 936 -586 1351 -91 114 -403 429 -426 429 -11 0 -13 -7
-7 -27z"/>
</g>
</svg>
